<svg width="350" height="242" viewBox="0 0 350 242" fill="none" xmlns="http://www.w3.org/2000/svg">
<rect width="350" height="242" fill="#211F1F"/>
<path d="M129.119 113V102.818H132.847C133.57 102.818 134.168 102.937 134.642 103.176C135.116 103.411 135.471 103.731 135.706 104.136C135.941 104.537 136.059 104.989 136.059 105.493C136.059 105.917 135.981 106.275 135.825 106.567C135.67 106.855 135.461 107.087 135.199 107.263C134.94 107.435 134.655 107.561 134.344 107.641V107.74C134.682 107.757 135.012 107.866 135.333 108.068C135.658 108.267 135.926 108.55 136.138 108.918C136.351 109.286 136.457 109.734 136.457 110.261C136.457 110.781 136.334 111.248 136.089 111.663C135.847 112.074 135.472 112.4 134.965 112.642C134.458 112.881 133.81 113 133.021 113H129.119ZM130.655 111.683H132.872C133.608 111.683 134.135 111.54 134.453 111.255C134.771 110.97 134.93 110.614 134.93 110.186C134.93 109.865 134.849 109.57 134.687 109.301C134.524 109.033 134.292 108.819 133.991 108.66C133.692 108.501 133.338 108.421 132.927 108.421H130.655V111.683ZM130.655 107.223H132.713C133.058 107.223 133.368 107.157 133.643 107.024C133.921 106.892 134.142 106.706 134.304 106.467C134.47 106.225 134.553 105.94 134.553 105.612C134.553 105.191 134.405 104.838 134.11 104.553C133.815 104.268 133.363 104.126 132.753 104.126H130.655V107.223ZM143.279 113V102.818H146.908C147.697 102.818 148.351 102.954 148.872 103.226C149.395 103.498 149.787 103.874 150.045 104.354C150.304 104.832 150.433 105.384 150.433 106.01C150.433 106.633 150.302 107.182 150.04 107.656C149.782 108.126 149.391 108.492 148.867 108.754C148.346 109.016 147.692 109.147 146.903 109.147H144.154V107.825H146.764C147.261 107.825 147.665 107.753 147.977 107.611C148.292 107.468 148.522 107.261 148.668 106.989C148.814 106.718 148.887 106.391 148.887 106.01C148.887 105.625 148.812 105.292 148.663 105.011C148.517 104.729 148.287 104.513 147.972 104.364C147.66 104.212 147.251 104.136 146.744 104.136H144.815V113H143.279ZM148.305 108.406L150.821 113H149.071L146.605 108.406H148.305ZM158.162 113H156.532L160.196 102.818H161.971L165.635 113H164.004L161.125 104.668H161.046L158.162 113ZM158.436 109.013H163.725V110.305H158.436V109.013ZM180.323 102.818V113H178.911L173.736 105.533H173.641V113H172.105V102.818H173.527L178.707 110.295H178.802V102.818H180.323ZM190.86 113H187.564V102.818H190.964C191.962 102.818 192.819 103.022 193.535 103.43C194.251 103.834 194.799 104.416 195.18 105.175C195.565 105.93 195.757 106.837 195.757 107.894C195.757 108.955 195.563 109.866 195.175 110.629C194.791 111.391 194.234 111.978 193.505 112.388C192.776 112.796 191.894 113 190.86 113ZM189.1 111.658H190.776C191.551 111.658 192.196 111.512 192.71 111.22C193.223 110.925 193.608 110.499 193.863 109.942C194.118 109.382 194.246 108.7 194.246 107.894C194.246 107.095 194.118 106.418 193.863 105.861C193.611 105.304 193.235 104.881 192.734 104.593C192.234 104.305 191.612 104.161 190.87 104.161H189.1V111.658ZM204.204 102.818V113H202.667V102.818H204.204ZM219.659 102.818V113H218.247L213.072 105.533H212.977V113H211.441V102.818H212.863L218.043 110.295H218.138V102.818H219.659ZM233.79 106.035C233.694 105.733 233.565 105.463 233.403 105.224C233.244 104.982 233.053 104.777 232.831 104.608C232.609 104.436 232.355 104.305 232.07 104.215C231.789 104.126 231.479 104.081 231.141 104.081C230.567 104.081 230.05 104.228 229.589 104.523C229.129 104.818 228.764 105.251 228.496 105.821C228.231 106.388 228.098 107.082 228.098 107.904C228.098 108.729 228.232 109.427 228.501 109.997C228.769 110.567 229.137 111 229.604 111.295C230.072 111.59 230.604 111.737 231.2 111.737C231.754 111.737 232.236 111.625 232.647 111.399C233.061 111.174 233.381 110.856 233.607 110.445C233.835 110.03 233.95 109.543 233.95 108.983L234.347 109.058H231.434V107.79H235.436V108.948C235.436 109.803 235.254 110.546 234.889 111.175C234.528 111.802 234.027 112.286 233.388 112.627C232.751 112.969 232.022 113.139 231.2 113.139C230.279 113.139 229.47 112.927 228.774 112.503C228.081 112.079 227.541 111.477 227.153 110.698C226.766 109.916 226.572 108.988 226.572 107.914C226.572 107.102 226.684 106.373 226.91 105.727C227.135 105.08 227.452 104.532 227.859 104.081C228.27 103.627 228.753 103.281 229.306 103.042C229.863 102.8 230.471 102.679 231.131 102.679C231.681 102.679 232.193 102.76 232.667 102.923C233.144 103.085 233.568 103.315 233.94 103.614C234.314 103.912 234.624 104.267 234.869 104.678C235.115 105.085 235.28 105.538 235.366 106.035H233.79ZM129.119 130V119.818H130.655V128.678H135.268V130H129.119ZM150.469 124.909C150.469 125.996 150.27 126.931 149.872 127.713C149.475 128.492 148.929 129.092 148.237 129.513C147.547 129.93 146.763 130.139 145.885 130.139C145.003 130.139 144.216 129.93 143.524 129.513C142.834 129.092 142.291 128.49 141.893 127.708C141.495 126.926 141.296 125.993 141.296 124.909C141.296 123.822 141.495 122.889 141.893 122.11C142.291 121.328 142.834 120.728 143.524 120.31C144.216 119.889 145.003 119.679 145.885 119.679C146.763 119.679 147.547 119.889 148.237 120.31C148.929 120.728 149.475 121.328 149.872 122.11C150.27 122.889 150.469 123.822 150.469 124.909ZM148.948 124.909C148.948 124.08 148.813 123.383 148.545 122.816C148.28 122.246 147.915 121.815 147.451 121.523C146.99 121.228 146.468 121.081 145.885 121.081C145.298 121.081 144.775 121.228 144.314 121.523C143.853 121.815 143.489 122.246 143.22 122.816C142.955 123.383 142.823 124.08 142.823 124.909C142.823 125.738 142.955 126.437 143.22 127.007C143.489 127.574 143.853 128.005 144.314 128.3C144.775 128.591 145.298 128.737 145.885 128.737C146.468 128.737 146.99 128.591 147.451 128.3C147.915 128.005 148.28 127.574 148.545 127.007C148.813 126.437 148.948 125.738 148.948 124.909ZM157.384 130V119.818H161.013C161.802 119.818 162.457 119.954 162.977 120.226C163.501 120.498 163.892 120.874 164.151 121.354C164.409 121.832 164.538 122.384 164.538 123.01C164.538 123.633 164.407 124.182 164.146 124.656C163.887 125.126 163.496 125.492 162.972 125.754C162.452 126.016 161.797 126.147 161.009 126.147H158.259V124.825H160.869C161.366 124.825 161.771 124.753 162.082 124.611C162.397 124.468 162.628 124.261 162.773 123.989C162.919 123.718 162.992 123.391 162.992 123.01C162.992 122.625 162.918 122.292 162.768 122.011C162.623 121.729 162.392 121.513 162.077 121.364C161.766 121.212 161.357 121.136 160.849 121.136H158.92V130H157.384ZM162.411 125.406L164.926 130H163.176L160.71 125.406H162.411ZM171.408 130V119.818H177.791V121.141H172.944V124.243H177.458V125.56H172.944V128.678H177.851V130H171.408ZM184.843 119.818H186.708L189.949 127.733H190.068L193.31 119.818H195.174V130H193.713V122.632H193.618L190.615 129.985H189.402L186.399 122.627H186.305V130H184.843V119.818ZM212.649 119.818V130H211.113V119.818H212.649ZM219.886 130V119.818H223.515C224.308 119.818 224.964 119.962 225.484 120.251C226.005 120.539 226.394 120.933 226.653 121.434C226.911 121.931 227.04 122.491 227.04 123.114C227.04 123.741 226.909 124.304 226.648 124.805C226.389 125.302 225.998 125.696 225.474 125.988C224.954 126.276 224.299 126.42 223.51 126.42H221.015V125.118H223.371C223.872 125.118 224.278 125.032 224.589 124.859C224.901 124.684 225.13 124.445 225.275 124.143C225.421 123.842 225.494 123.499 225.494 123.114C225.494 122.73 225.421 122.388 225.275 122.09C225.13 121.792 224.899 121.558 224.584 121.389C224.273 121.22 223.862 121.136 223.351 121.136H221.422V130H219.886ZM239.395 122.493C239.342 122.022 239.123 121.658 238.738 121.399C238.354 121.137 237.87 121.006 237.287 121.006C236.869 121.006 236.508 121.073 236.203 121.205C235.898 121.335 235.661 121.513 235.492 121.742C235.326 121.968 235.243 122.224 235.243 122.513C235.243 122.755 235.3 122.964 235.412 123.139C235.528 123.315 235.679 123.462 235.865 123.582C236.054 123.698 236.256 123.795 236.471 123.875C236.687 123.951 236.894 124.014 237.093 124.064L238.087 124.322C238.412 124.402 238.745 124.51 239.086 124.646C239.428 124.781 239.744 124.96 240.036 125.183C240.328 125.405 240.563 125.68 240.742 126.008C240.924 126.336 241.015 126.729 241.015 127.186C241.015 127.763 240.866 128.275 240.568 128.722C240.273 129.17 239.844 129.523 239.28 129.781C238.72 130.04 238.042 130.169 237.247 130.169C236.484 130.169 235.825 130.048 235.268 129.806C234.711 129.564 234.275 129.221 233.961 128.777C233.646 128.33 233.472 127.799 233.439 127.186H234.98C235.01 127.554 235.129 127.861 235.338 128.106C235.55 128.348 235.82 128.528 236.148 128.648C236.48 128.764 236.842 128.822 237.237 128.822C237.671 128.822 238.057 128.754 238.395 128.618C238.737 128.479 239.005 128.286 239.201 128.041C239.396 127.793 239.494 127.503 239.494 127.171C239.494 126.87 239.408 126.623 239.235 126.43C239.066 126.238 238.836 126.079 238.544 125.953C238.256 125.827 237.93 125.716 237.565 125.62L236.362 125.292C235.547 125.07 234.9 124.743 234.423 124.312C233.949 123.882 233.712 123.312 233.712 122.602C233.712 122.016 233.871 121.504 234.189 121.066C234.507 120.629 234.938 120.289 235.482 120.047C236.025 119.802 236.639 119.679 237.321 119.679C238.011 119.679 238.619 119.8 239.146 120.042C239.676 120.284 240.094 120.617 240.399 121.041C240.704 121.462 240.863 121.946 240.876 122.493H239.395ZM254.399 119.818H255.94V126.515C255.94 127.228 255.772 127.859 255.438 128.409C255.103 128.956 254.632 129.387 254.026 129.702C253.419 130.013 252.708 130.169 251.893 130.169C251.081 130.169 250.372 130.013 249.765 129.702C249.159 129.387 248.688 128.956 248.353 128.409C248.018 127.859 247.851 127.228 247.851 126.515V119.818H249.387V126.391C249.387 126.851 249.488 127.261 249.691 127.619C249.896 127.977 250.186 128.258 250.561 128.464C250.935 128.666 251.379 128.767 251.893 128.767C252.41 128.767 252.856 128.666 253.23 128.464C253.608 128.258 253.896 127.977 254.095 127.619C254.298 127.261 254.399 126.851 254.399 126.391V119.818ZM263.173 119.818H265.038L268.279 127.733H268.398L271.64 119.818H273.504V130H272.043V122.632H271.948L268.945 129.985H267.732L264.729 122.627H264.635V130H263.173V119.818Z" fill="white"/>
<path d="M128.264 139.203V138.636H131.641V139.203H130.28V143H129.624V139.203H128.264ZM134.241 143H133.542L135.112 138.636H135.873L137.443 143H136.744L135.51 139.429H135.476L134.241 143ZM134.358 141.291H136.625V141.845H134.358V141.291ZM142.821 140.015C142.78 139.886 142.725 139.77 142.655 139.668C142.587 139.564 142.505 139.476 142.41 139.403C142.315 139.33 142.206 139.273 142.084 139.235C141.963 139.197 141.83 139.178 141.686 139.178C141.44 139.178 141.218 139.241 141.021 139.367C140.823 139.494 140.667 139.679 140.552 139.923C140.438 140.166 140.382 140.464 140.382 140.816C140.382 141.17 140.439 141.469 140.554 141.713C140.669 141.957 140.827 142.143 141.027 142.269C141.227 142.396 141.455 142.459 141.711 142.459C141.948 142.459 142.155 142.411 142.331 142.314C142.509 142.217 142.646 142.081 142.742 141.905C142.84 141.727 142.889 141.518 142.889 141.278L143.06 141.31H141.811V140.767H143.526V141.263C143.526 141.63 143.448 141.948 143.292 142.218C143.137 142.487 142.923 142.694 142.649 142.84C142.376 142.987 142.063 143.06 141.711 143.06C141.316 143.06 140.97 142.969 140.671 142.787C140.374 142.605 140.143 142.347 139.977 142.013C139.811 141.678 139.727 141.281 139.727 140.82C139.727 140.472 139.776 140.16 139.872 139.883C139.969 139.606 140.105 139.371 140.279 139.178C140.455 138.983 140.662 138.835 140.899 138.732C141.138 138.629 141.399 138.577 141.681 138.577C141.917 138.577 142.137 138.612 142.34 138.681C142.544 138.751 142.726 138.849 142.885 138.977C143.046 139.105 143.178 139.257 143.284 139.433C143.389 139.608 143.46 139.802 143.497 140.015H142.821ZM146.362 143V138.636H147.021V142.433H148.998V143H146.362ZM152.407 138.636V143H151.749V138.636H152.407ZM158.888 138.636V143H158.283L156.065 139.8H156.025V143H155.366V138.636H155.975L158.196 141.841H158.236V138.636H158.888ZM161.849 143V138.636H164.584V139.203H162.507V140.533H164.442V141.097H162.507V142.433H164.61V143H161.849Z" fill="white"/>
<rect x="64" y="99" width="51" height="45" fill="white"/>
</svg>
