<svg width="56" height="50" viewBox="0 0 56 50" fill="none" xmlns="http://www.w3.org/2000/svg">
<rect width="56" height="50" rx="2" fill="#FBF9F8"/>
<g clip-path="url(#clip0_5865_14360)">
<path d="M26.1272 27.9608C24.5955 31.5039 21.6936 33.4677 19.4882 34.5018C18.5909 34.9242 17.6438 34.0303 17.9986 33.1019C18.1049 32.8258 18.2057 32.5304 18.2892 32.219C18.4742 31.551 18.5871 30.8651 18.6261 30.1731C18.6402 29.931 18.5742 29.691 18.4383 29.4902C18.3025 29.2893 18.1043 29.1388 17.8744 29.0618C16.4679 28.5969 15.2446 27.6987 14.38 26.4959C13.5153 25.2931 13.0536 23.8475 13.0611 22.3661C13.0811 18.5006 16.3427 15.3254 20.2054 15.3944C21.8916 15.4266 23.5097 16.0654 24.7631 17.1937C26.0166 18.322 26.8214 19.8643 27.0301 21.5378C27.0301 21.5468 27.0301 21.5558 27.0301 21.5647C27.0391 21.6427 27.0474 21.7214 27.0543 21.8001C27.193 23.2041 27.1909 25.4993 26.1272 27.9608Z" fill="currentColor"/>
<path d="M41.9485 27.9608C40.4168 31.5039 37.5149 33.4677 35.3095 34.5018C34.4122 34.9242 33.4651 34.0303 33.8206 33.1019C33.9269 32.8258 34.0277 32.5304 34.1105 32.219C34.2954 31.551 34.4084 30.8651 34.4474 30.1731C34.4615 29.9311 34.3956 29.6912 34.2599 29.4903C34.1242 29.2895 33.9261 29.1389 33.6964 29.0618C32.2897 28.597 31.0663 27.6989 30.2015 26.4961C29.3368 25.2933 28.875 23.8475 28.8824 22.3661C28.9031 18.5006 32.164 15.3254 36.0267 15.3944C37.7129 15.4266 39.331 16.0654 40.5844 17.1937C41.8379 18.322 42.6427 19.8643 42.8514 21.5378C42.8514 21.5468 42.8514 21.5558 42.8514 21.5647C42.8604 21.6427 42.8694 21.7214 42.8756 21.8001C43.0116 23.2041 43.0102 25.4993 41.9485 27.9608Z" fill="currentColor"/>
</g>
<defs>
<clipPath id="clip0_5865_14360">
<rect width="29.8776" height="19.2192" fill="white" transform="translate(13.061 15.3904)"/>
</clipPath>
</defs>
</svg>
