<svg width="350" height="321" viewBox="0 0 350 321" fill="none" xmlns="http://www.w3.org/2000/svg">
<rect width="350" height="321" fill="#211F1F"/>
<path d="M129.119 152V141.818H132.847C133.57 141.818 134.168 141.937 134.642 142.176C135.116 142.411 135.471 142.731 135.706 143.136C135.941 143.537 136.059 143.989 136.059 144.493C136.059 144.917 135.981 145.275 135.825 145.567C135.67 145.855 135.461 146.087 135.199 146.263C134.94 146.435 134.655 146.561 134.344 146.641V146.74C134.682 146.757 135.012 146.866 135.333 147.068C135.658 147.267 135.926 147.55 136.138 147.918C136.351 148.286 136.457 148.734 136.457 149.261C136.457 149.781 136.334 150.248 136.089 150.663C135.847 151.074 135.472 151.4 134.965 151.642C134.458 151.881 133.81 152 133.021 152H129.119ZM130.655 150.683H132.872C133.608 150.683 134.135 150.54 134.453 150.255C134.771 149.97 134.93 149.614 134.93 149.186C134.93 148.865 134.849 148.57 134.687 148.301C134.524 148.033 134.292 147.819 133.991 147.66C133.692 147.501 133.338 147.421 132.927 147.421H130.655V150.683ZM130.655 146.223H132.713C133.058 146.223 133.368 146.157 133.643 146.024C133.921 145.892 134.142 145.706 134.304 145.467C134.47 145.225 134.553 144.94 134.553 144.612C134.553 144.191 134.405 143.838 134.11 143.553C133.815 143.268 133.363 143.126 132.753 143.126H130.655V146.223ZM143.279 152V141.818H146.908C147.697 141.818 148.351 141.954 148.872 142.226C149.395 142.498 149.787 142.874 150.045 143.354C150.304 143.832 150.433 144.384 150.433 145.01C150.433 145.633 150.302 146.182 150.04 146.656C149.782 147.126 149.391 147.492 148.867 147.754C148.346 148.016 147.692 148.147 146.903 148.147H144.154V146.825H146.764C147.261 146.825 147.665 146.753 147.977 146.611C148.292 146.468 148.522 146.261 148.668 145.989C148.814 145.718 148.887 145.391 148.887 145.01C148.887 144.625 148.812 144.292 148.663 144.011C148.517 143.729 148.287 143.513 147.972 143.364C147.66 143.212 147.251 143.136 146.744 143.136H144.815V152H143.279ZM148.305 147.406L150.821 152H149.071L146.605 147.406H148.305ZM158.162 152H156.532L160.196 141.818H161.971L165.635 152H164.004L161.125 143.668H161.046L158.162 152ZM158.436 148.013H163.725V149.305H158.436V148.013ZM180.323 141.818V152H178.911L173.736 144.533H173.641V152H172.105V141.818H173.527L178.707 149.295H178.802V141.818H180.323ZM190.86 152H187.564V141.818H190.964C191.962 141.818 192.819 142.022 193.535 142.43C194.251 142.834 194.799 143.416 195.18 144.175C195.565 144.93 195.757 145.837 195.757 146.894C195.757 147.955 195.563 148.866 195.175 149.629C194.791 150.391 194.234 150.978 193.505 151.388C192.776 151.796 191.894 152 190.86 152ZM189.1 150.658H190.776C191.551 150.658 192.196 150.512 192.71 150.22C193.223 149.925 193.608 149.499 193.863 148.942C194.118 148.382 194.246 147.7 194.246 146.894C194.246 146.095 194.118 145.418 193.863 144.861C193.611 144.304 193.235 143.881 192.734 143.593C192.234 143.305 191.612 143.161 190.87 143.161H189.1V150.658ZM204.204 141.818V152H202.667V141.818H204.204ZM219.659 141.818V152H218.247L213.072 144.533H212.977V152H211.441V141.818H212.863L218.043 149.295H218.138V141.818H219.659ZM233.79 145.035C233.694 144.733 233.565 144.463 233.403 144.224C233.244 143.982 233.053 143.777 232.831 143.608C232.609 143.436 232.355 143.305 232.07 143.215C231.789 143.126 231.479 143.081 231.141 143.081C230.567 143.081 230.05 143.228 229.589 143.523C229.129 143.818 228.764 144.251 228.496 144.821C228.231 145.388 228.098 146.082 228.098 146.904C228.098 147.729 228.232 148.427 228.501 148.997C228.769 149.567 229.137 150 229.604 150.295C230.072 150.59 230.604 150.737 231.2 150.737C231.754 150.737 232.236 150.625 232.647 150.399C233.061 150.174 233.381 149.856 233.607 149.445C233.835 149.03 233.95 148.543 233.95 147.983L234.347 148.058H231.434V146.79H235.436V147.948C235.436 148.803 235.254 149.546 234.889 150.175C234.528 150.802 234.027 151.286 233.388 151.627C232.751 151.969 232.022 152.139 231.2 152.139C230.279 152.139 229.47 151.927 228.774 151.503C228.081 151.079 227.541 150.477 227.153 149.698C226.766 148.916 226.572 147.988 226.572 146.914C226.572 146.102 226.684 145.373 226.91 144.727C227.135 144.08 227.452 143.532 227.859 143.081C228.27 142.627 228.753 142.281 229.306 142.042C229.863 141.8 230.471 141.679 231.131 141.679C231.681 141.679 232.193 141.76 232.667 141.923C233.144 142.085 233.568 142.315 233.94 142.614C234.314 142.912 234.624 143.267 234.869 143.678C235.115 144.085 235.28 144.538 235.366 145.035H233.79ZM129.119 169V158.818H130.655V167.678H135.268V169H129.119ZM150.469 163.909C150.469 164.996 150.27 165.931 149.872 166.713C149.475 167.492 148.929 168.092 148.237 168.513C147.547 168.93 146.763 169.139 145.885 169.139C145.003 169.139 144.216 168.93 143.524 168.513C142.834 168.092 142.291 167.49 141.893 166.708C141.495 165.926 141.296 164.993 141.296 163.909C141.296 162.822 141.495 161.889 141.893 161.11C142.291 160.328 142.834 159.728 143.524 159.31C144.216 158.889 145.003 158.679 145.885 158.679C146.763 158.679 147.547 158.889 148.237 159.31C148.929 159.728 149.475 160.328 149.872 161.11C150.27 161.889 150.469 162.822 150.469 163.909ZM148.948 163.909C148.948 163.08 148.813 162.383 148.545 161.816C148.28 161.246 147.915 160.815 147.451 160.523C146.99 160.228 146.468 160.081 145.885 160.081C145.298 160.081 144.775 160.228 144.314 160.523C143.853 160.815 143.489 161.246 143.22 161.816C142.955 162.383 142.823 163.08 142.823 163.909C142.823 164.738 142.955 165.437 143.22 166.007C143.489 166.574 143.853 167.005 144.314 167.3C144.775 167.591 145.298 167.737 145.885 167.737C146.468 167.737 146.99 167.591 147.451 167.3C147.915 167.005 148.28 166.574 148.545 166.007C148.813 165.437 148.948 164.738 148.948 163.909ZM157.384 169V158.818H161.013C161.802 158.818 162.457 158.954 162.977 159.226C163.501 159.498 163.892 159.874 164.151 160.354C164.409 160.832 164.538 161.384 164.538 162.01C164.538 162.633 164.407 163.182 164.146 163.656C163.887 164.126 163.496 164.492 162.972 164.754C162.452 165.016 161.797 165.147 161.009 165.147H158.259V163.825H160.869C161.366 163.825 161.771 163.753 162.082 163.611C162.397 163.468 162.628 163.261 162.773 162.989C162.919 162.718 162.992 162.391 162.992 162.01C162.992 161.625 162.918 161.292 162.768 161.011C162.623 160.729 162.392 160.513 162.077 160.364C161.766 160.212 161.357 160.136 160.849 160.136H158.92V169H157.384ZM162.411 164.406L164.926 169H163.176L160.71 164.406H162.411ZM171.408 169V158.818H177.791V160.141H172.944V163.243H177.458V164.56H172.944V167.678H177.851V169H171.408ZM184.843 158.818H186.708L189.949 166.733H190.068L193.31 158.818H195.174V169H193.713V161.632H193.618L190.615 168.985H189.402L186.399 161.627H186.305V169H184.843V158.818ZM212.649 158.818V169H211.113V158.818H212.649ZM219.886 169V158.818H223.515C224.308 158.818 224.964 158.962 225.484 159.251C226.005 159.539 226.394 159.933 226.653 160.434C226.911 160.931 227.04 161.491 227.04 162.114C227.04 162.741 226.909 163.304 226.648 163.805C226.389 164.302 225.998 164.696 225.474 164.988C224.954 165.276 224.299 165.42 223.51 165.42H221.015V164.118H223.371C223.872 164.118 224.278 164.032 224.589 163.859C224.901 163.684 225.13 163.445 225.275 163.143C225.421 162.842 225.494 162.499 225.494 162.114C225.494 161.73 225.421 161.388 225.275 161.09C225.13 160.792 224.899 160.558 224.584 160.389C224.273 160.22 223.862 160.136 223.351 160.136H221.422V169H219.886ZM239.395 161.493C239.342 161.022 239.123 160.658 238.738 160.399C238.354 160.137 237.87 160.006 237.287 160.006C236.869 160.006 236.508 160.073 236.203 160.205C235.898 160.335 235.661 160.513 235.492 160.742C235.326 160.968 235.243 161.224 235.243 161.513C235.243 161.755 235.3 161.964 235.412 162.139C235.528 162.315 235.679 162.462 235.865 162.582C236.054 162.698 236.256 162.795 236.471 162.875C236.687 162.951 236.894 163.014 237.093 163.064L238.087 163.322C238.412 163.402 238.745 163.51 239.086 163.646C239.428 163.781 239.744 163.96 240.036 164.183C240.328 164.405 240.563 164.68 240.742 165.008C240.924 165.336 241.015 165.729 241.015 166.186C241.015 166.763 240.866 167.275 240.568 167.722C240.273 168.17 239.844 168.523 239.28 168.781C238.72 169.04 238.042 169.169 237.247 169.169C236.484 169.169 235.825 169.048 235.268 168.806C234.711 168.564 234.275 168.221 233.961 167.777C233.646 167.33 233.472 166.799 233.439 166.186H234.98C235.01 166.554 235.129 166.861 235.338 167.106C235.55 167.348 235.82 167.528 236.148 167.648C236.48 167.764 236.842 167.822 237.237 167.822C237.671 167.822 238.057 167.754 238.395 167.618C238.737 167.479 239.005 167.286 239.201 167.041C239.396 166.793 239.494 166.503 239.494 166.171C239.494 165.87 239.408 165.623 239.235 165.43C239.066 165.238 238.836 165.079 238.544 164.953C238.256 164.827 237.93 164.716 237.565 164.62L236.362 164.292C235.547 164.07 234.9 163.743 234.423 163.312C233.949 162.882 233.712 162.312 233.712 161.602C233.712 161.016 233.871 160.504 234.189 160.066C234.507 159.629 234.938 159.289 235.482 159.047C236.025 158.802 236.639 158.679 237.321 158.679C238.011 158.679 238.619 158.8 239.146 159.042C239.676 159.284 240.094 159.617 240.399 160.041C240.704 160.462 240.863 160.946 240.876 161.493H239.395ZM254.399 158.818H255.94V165.515C255.94 166.228 255.772 166.859 255.438 167.409C255.103 167.956 254.632 168.387 254.026 168.702C253.419 169.013 252.708 169.169 251.893 169.169C251.081 169.169 250.372 169.013 249.765 168.702C249.159 168.387 248.688 167.956 248.353 167.409C248.018 166.859 247.851 166.228 247.851 165.515V158.818H249.387V165.391C249.387 165.851 249.488 166.261 249.691 166.619C249.896 166.977 250.186 167.258 250.561 167.464C250.935 167.666 251.379 167.767 251.893 167.767C252.41 167.767 252.856 167.666 253.23 167.464C253.608 167.258 253.896 166.977 254.095 166.619C254.298 166.261 254.399 165.851 254.399 165.391V158.818ZM263.173 158.818H265.038L268.279 166.733H268.398L271.64 158.818H273.504V169H272.043V161.632H271.948L268.945 168.985H267.732L264.729 161.627H264.635V169H263.173V158.818Z" fill="white"/>
<path d="M128.264 178.203V177.636H131.641V178.203H130.28V182H129.624V178.203H128.264ZM134.241 182H133.542L135.112 177.636H135.873L137.443 182H136.744L135.51 178.429H135.476L134.241 182ZM134.358 180.291H136.625V180.845H134.358V180.291ZM142.821 179.015C142.78 178.886 142.725 178.77 142.655 178.668C142.587 178.564 142.505 178.476 142.41 178.403C142.315 178.33 142.206 178.273 142.084 178.235C141.963 178.197 141.83 178.178 141.686 178.178C141.44 178.178 141.218 178.241 141.021 178.367C140.823 178.494 140.667 178.679 140.552 178.923C140.438 179.166 140.382 179.464 140.382 179.816C140.382 180.17 140.439 180.469 140.554 180.713C140.669 180.957 140.827 181.143 141.027 181.269C141.227 181.396 141.455 181.459 141.711 181.459C141.948 181.459 142.155 181.411 142.331 181.314C142.509 181.217 142.646 181.081 142.742 180.905C142.84 180.727 142.889 180.518 142.889 180.278L143.06 180.31H141.811V179.767H143.526V180.263C143.526 180.63 143.448 180.948 143.292 181.218C143.137 181.487 142.923 181.694 142.649 181.84C142.376 181.987 142.063 182.06 141.711 182.06C141.316 182.06 140.97 181.969 140.671 181.787C140.374 181.605 140.143 181.347 139.977 181.013C139.811 180.678 139.727 180.281 139.727 179.82C139.727 179.472 139.776 179.16 139.872 178.883C139.969 178.606 140.105 178.371 140.279 178.178C140.455 177.983 140.662 177.835 140.899 177.732C141.138 177.629 141.399 177.577 141.681 177.577C141.917 177.577 142.137 177.612 142.34 177.681C142.544 177.751 142.726 177.849 142.885 177.977C143.046 178.105 143.178 178.257 143.284 178.433C143.389 178.608 143.46 178.802 143.497 179.015H142.821ZM146.362 182V177.636H147.021V181.433H148.998V182H146.362ZM152.407 177.636V182H151.749V177.636H152.407ZM158.888 177.636V182H158.283L156.065 178.8H156.025V182H155.366V177.636H155.975L158.196 180.841H158.236V177.636H158.888ZM161.849 182V177.636H164.584V178.203H162.507V179.533H164.442V180.097H162.507V181.433H164.61V182H161.849Z" fill="white"/>
<rect x="64" y="138" width="51" height="45" fill="white"/>
</svg>
