<svg width="222" height="45" viewBox="0 0 222 45" fill="none" xmlns="http://www.w3.org/2000/svg">
<path d="M65.1186 14V3.81818H68.8473C69.5698 3.81818 70.1681 3.9375 70.642 4.17614C71.116 4.41146 71.4706 4.7313 71.706 5.13565C71.9413 5.53669 72.0589 5.98911 72.0589 6.4929C72.0589 6.91714 71.9811 7.27509 71.8253 7.56676C71.6695 7.85511 71.4607 8.08712 71.1989 8.26278C70.9403 8.43513 70.6553 8.56108 70.3438 8.64062V8.74006C70.6818 8.75663 71.0116 8.866 71.3331 9.06818C71.6579 9.26705 71.9264 9.55043 72.1385 9.91832C72.3506 10.2862 72.4567 10.7337 72.4567 11.2607C72.4567 11.781 72.334 12.2483 72.0888 12.6626C71.8468 13.0736 71.4723 13.4001 70.9652 13.642C70.4581 13.8807 69.8101 14 69.0213 14H65.1186ZM66.6548 12.6825H68.8722C69.608 12.6825 70.1349 12.54 70.4531 12.255C70.7713 11.9699 70.9304 11.6136 70.9304 11.1861C70.9304 10.8646 70.8492 10.5696 70.6868 10.3011C70.5244 10.0327 70.2924 9.81889 69.9908 9.6598C69.6925 9.50071 69.3378 9.42116 68.9268 9.42116H66.6548V12.6825ZM66.6548 8.22301H68.7131C69.0578 8.22301 69.3677 8.15672 69.6428 8.02415C69.9212 7.89157 70.1416 7.70597 70.304 7.46733C70.4697 7.22538 70.5526 6.94034 70.5526 6.61222C70.5526 6.19129 70.4051 5.8383 70.1101 5.55327C69.8151 5.26823 69.3627 5.12571 68.7528 5.12571H66.6548V8.22301ZM79.2788 14V3.81818H82.908C83.6969 3.81818 84.3514 3.95407 84.8718 4.22585C85.3955 4.49763 85.7866 4.87382 86.0451 5.3544C86.3036 5.83168 86.4329 6.38352 86.4329 7.00994C86.4329 7.63305 86.302 8.18158 86.0401 8.65554C85.7816 9.12618 85.3905 9.49242 84.8668 9.75426C84.3465 10.0161 83.6919 10.147 82.9031 10.147H80.1538V8.82457H82.7638C83.261 8.82457 83.6654 8.75331 83.9769 8.6108C84.2918 8.46828 84.5221 8.26113 84.668 7.98935C84.8138 7.71757 84.8867 7.3911 84.8867 7.00994C84.8867 6.62547 84.8121 6.29238 84.663 6.01065C84.5172 5.72893 84.2868 5.51349 83.9719 5.36435C83.6604 5.21188 83.2511 5.13565 82.744 5.13565H80.815V14H79.2788ZM84.305 9.40625L86.8207 14H85.0707L82.6048 9.40625H84.305ZM94.1623 14H92.5316L96.1957 3.81818H97.9705L101.635 14H100.004L97.1254 5.66761H97.0458L94.1623 14ZM94.4357 10.0128H99.7255V11.3054H94.4357V10.0128ZM116.323 3.81818V14H114.911L109.736 6.53267H109.641V14H108.105V3.81818H109.527L114.707 11.2955H114.802V3.81818H116.323ZM126.86 14H123.564V3.81818H126.964C127.962 3.81818 128.819 4.02202 129.535 4.42969C130.251 4.83404 130.799 5.41572 131.18 6.17472C131.565 6.9304 131.757 7.83688 131.757 8.89418C131.757 9.95478 131.563 10.8662 131.175 11.6286C130.791 12.3909 130.234 12.9775 129.505 13.3885C128.776 13.7962 127.894 14 126.86 14ZM125.1 12.6577H126.776C127.551 12.6577 128.196 12.5118 128.71 12.2202C129.223 11.9252 129.608 11.4993 129.863 10.9425C130.118 10.3823 130.246 9.69957 130.246 8.89418C130.246 8.09541 130.118 7.41761 129.863 6.8608C129.611 6.30398 129.235 5.88139 128.734 5.59304C128.234 5.30469 127.612 5.16051 126.87 5.16051H125.1V12.6577ZM140.204 3.81818V14H138.667V3.81818H140.204ZM155.659 3.81818V14H154.247L149.072 6.53267H148.977V14H147.441V3.81818H148.863L154.043 11.2955H154.138V3.81818H155.659ZM169.79 7.0348C169.694 6.73319 169.565 6.46307 169.403 6.22443C169.244 5.98248 169.053 5.77699 168.831 5.60795C168.609 5.43561 168.355 5.30469 168.07 5.2152C167.789 5.12571 167.479 5.08097 167.141 5.08097C166.567 5.08097 166.05 5.22846 165.589 5.52344C165.129 5.81842 164.764 6.25095 164.496 6.82102C164.231 7.38778 164.098 8.08215 164.098 8.90412C164.098 9.7294 164.232 10.4271 164.501 10.9972C164.769 11.5672 165.137 11.9998 165.604 12.2947C166.072 12.5897 166.604 12.7372 167.2 12.7372C167.754 12.7372 168.236 12.6245 168.647 12.3991C169.061 12.1738 169.381 11.8556 169.607 11.4446C169.835 11.0303 169.95 10.5431 169.95 9.98295L170.347 10.0575H167.434V8.78977H171.436V9.94815C171.436 10.8033 171.254 11.5457 170.889 12.1754C170.528 12.8018 170.027 13.2857 169.388 13.6271C168.751 13.9685 168.022 14.1392 167.2 14.1392C166.279 14.1392 165.47 13.9271 164.774 13.5028C164.081 13.0786 163.541 12.477 163.153 11.6982C162.766 10.916 162.572 9.98793 162.572 8.91406C162.572 8.10204 162.684 7.37287 162.91 6.72656C163.135 6.08026 163.452 5.53172 163.859 5.08097C164.27 4.62689 164.753 4.28054 165.306 4.0419C165.863 3.79995 166.471 3.67898 167.131 3.67898C167.681 3.67898 168.193 3.76018 168.667 3.92258C169.144 4.08499 169.568 4.31534 169.94 4.61364C170.314 4.91193 170.624 5.26657 170.869 5.67756C171.115 6.08523 171.28 6.53764 171.366 7.0348H169.79ZM65.1186 31V20.8182H66.6548V29.6776H71.2685V31H65.1186ZM86.4689 25.9091C86.4689 26.9962 86.2701 27.9309 85.8723 28.7131C85.4746 29.492 84.9294 30.0919 84.2367 30.5128C83.5473 30.9304 82.7634 31.1392 81.8851 31.1392C81.0035 31.1392 80.2163 30.9304 79.5236 30.5128C78.8342 30.0919 78.2907 29.4903 77.8929 28.7081C77.4952 27.9259 77.2963 26.9929 77.2963 25.9091C77.2963 24.822 77.4952 23.889 77.8929 23.1101C78.2907 22.3279 78.8342 21.728 79.5236 21.3104C80.2163 20.8894 81.0035 20.679 81.8851 20.679C82.7634 20.679 83.5473 20.8894 84.2367 21.3104C84.9294 21.728 85.4746 22.3279 85.8723 23.1101C86.2701 23.889 86.4689 24.822 86.4689 25.9091ZM84.9476 25.9091C84.9476 25.0805 84.8134 24.3828 84.5449 23.8161C84.2798 23.246 83.9152 22.8151 83.4512 22.5234C82.9905 22.2285 82.4685 22.081 81.8851 22.081C81.2985 22.081 80.7748 22.2285 80.3141 22.5234C79.8534 22.8151 79.4888 23.246 79.2203 23.8161C78.9552 24.3828 78.8226 25.0805 78.8226 25.9091C78.8226 26.7377 78.9552 27.437 79.2203 28.0071C79.4888 28.5739 79.8534 29.0047 80.3141 29.2997C80.7748 29.5914 81.2985 29.7372 81.8851 29.7372C82.4685 29.7372 82.9905 29.5914 83.4512 29.2997C83.9152 29.0047 84.2798 28.5739 84.5449 28.0071C84.8134 27.437 84.9476 26.7377 84.9476 25.9091ZM93.3842 31V20.8182H97.0135C97.8023 20.8182 98.4569 20.9541 98.9773 21.2259C99.5009 21.4976 99.892 21.8738 100.151 22.3544C100.409 22.8317 100.538 23.3835 100.538 24.0099C100.538 24.633 100.407 25.1816 100.146 25.6555C99.8871 26.1262 99.496 26.4924 98.9723 26.7543C98.4519 27.0161 97.7973 27.147 97.0085 27.147H94.2592V25.8246H96.8693C97.3665 25.8246 97.7708 25.7533 98.0824 25.6108C98.3973 25.4683 98.6276 25.2611 98.7734 24.9893C98.9193 24.7176 98.9922 24.3911 98.9922 24.0099C98.9922 23.6255 98.9176 23.2924 98.7685 23.0107C98.6226 22.7289 98.3923 22.5135 98.0774 22.3643C97.7659 22.2119 97.3565 22.1357 96.8494 22.1357H94.9205V31H93.3842ZM98.4105 26.4062L100.926 31H99.1761L96.7102 26.4062H98.4105ZM107.408 31V20.8182H113.791V22.1406H108.944V25.2429H113.458V26.5604H108.944V29.6776H113.851V31H107.408ZM120.843 20.8182H122.708L125.949 28.733H126.068L129.31 20.8182H131.174V31H129.713V23.6321H129.618L126.615 30.9851H125.402L122.399 23.6271H122.305V31H120.843V20.8182ZM148.649 20.8182V31H147.113V20.8182H148.649ZM155.886 31V20.8182H159.515C160.308 20.8182 160.964 20.9624 161.484 21.2507C162.005 21.5391 162.394 21.9335 162.653 22.4339C162.911 22.9311 163.04 23.4912 163.04 24.1143C163.04 24.7408 162.909 25.3042 162.648 25.8047C162.389 26.3018 161.998 26.6963 161.474 26.9879C160.954 27.2763 160.299 27.4205 159.51 27.4205H157.015V26.1179H159.371C159.872 26.1179 160.278 26.0317 160.589 25.8594C160.901 25.6837 161.13 25.4451 161.275 25.1435C161.421 24.8419 161.494 24.4988 161.494 24.1143C161.494 23.7299 161.421 23.3885 161.275 23.0902C161.13 22.7919 160.899 22.5582 160.584 22.3892C160.273 22.2202 159.862 22.1357 159.351 22.1357H157.422V31H155.886ZM175.395 23.4929C175.342 23.0223 175.123 22.6577 174.738 22.3991C174.354 22.1373 173.87 22.0064 173.287 22.0064C172.869 22.0064 172.508 22.0727 172.203 22.2053C171.898 22.3345 171.661 22.5135 171.492 22.7422C171.326 22.9676 171.243 23.2244 171.243 23.5128C171.243 23.7547 171.3 23.9635 171.412 24.1392C171.528 24.3149 171.679 24.4624 171.865 24.5817C172.054 24.6977 172.256 24.7955 172.471 24.875C172.687 24.9512 172.894 25.0142 173.093 25.0639L174.087 25.3224C174.412 25.402 174.745 25.5097 175.086 25.6456C175.428 25.7815 175.744 25.9605 176.036 26.1825C176.328 26.4046 176.563 26.6797 176.742 27.0078C176.924 27.3359 177.015 27.7287 177.015 28.1861C177.015 28.7628 176.866 29.2749 176.568 29.7223C176.273 30.1697 175.844 30.5227 175.28 30.7812C174.72 31.0398 174.042 31.169 173.247 31.169C172.484 31.169 171.825 31.0481 171.268 30.8061C170.711 30.5642 170.275 30.2211 169.961 29.777C169.646 29.3295 169.472 28.7992 169.439 28.1861H170.98C171.01 28.554 171.129 28.8606 171.338 29.1058C171.55 29.3478 171.82 29.5284 172.148 29.6477C172.48 29.7637 172.842 29.8217 173.237 29.8217C173.671 29.8217 174.057 29.7538 174.395 29.6179C174.737 29.4787 175.005 29.2865 175.201 29.0412C175.396 28.7926 175.494 28.5026 175.494 28.1712C175.494 27.8696 175.408 27.6226 175.235 27.4304C175.066 27.2382 174.836 27.0791 174.544 26.9531C174.256 26.8272 173.93 26.7161 173.565 26.62L172.362 26.2919C171.547 26.0698 170.9 25.7434 170.423 25.3125C169.949 24.8816 169.712 24.3116 169.712 23.6023C169.712 23.0156 169.871 22.5036 170.189 22.0661C170.507 21.6286 170.938 21.2888 171.482 21.0469C172.025 20.8016 172.639 20.679 173.321 20.679C174.011 20.679 174.619 20.8 175.146 21.0419C175.676 21.2839 176.094 21.617 176.399 22.0412C176.704 22.4621 176.863 22.946 176.876 23.4929H175.395ZM190.399 20.8182H191.94V27.5149C191.94 28.2275 191.772 28.8589 191.438 29.4091C191.103 29.956 190.632 30.3868 190.026 30.7017C189.419 31.0133 188.708 31.169 187.893 31.169C187.081 31.169 186.372 31.0133 185.765 30.7017C185.159 30.3868 184.688 29.956 184.353 29.4091C184.018 28.8589 183.851 28.2275 183.851 27.5149V20.8182H185.387V27.3906C185.387 27.8513 185.488 28.2607 185.691 28.6186C185.896 28.9766 186.186 29.2583 186.561 29.4638C186.935 29.666 187.379 29.767 187.893 29.767C188.41 29.767 188.856 29.666 189.23 29.4638C189.608 29.2583 189.896 28.9766 190.095 28.6186C190.298 28.2607 190.399 27.8513 190.399 27.3906V20.8182ZM199.173 20.8182H201.038L204.279 28.733H204.398L207.64 20.8182H209.504V31H208.043V23.6321H207.948L204.945 30.9851H203.732L200.729 23.6271H200.635V31H199.173V20.8182Z" fill="#211F1F"/>
<path d="M64.2642 40.2031V39.6364H67.6413V40.2031H66.2798V44H65.6236V40.2031H64.2642ZM70.2406 44H69.5417L71.112 39.6364H71.8727L73.443 44H72.7441L71.5105 40.429H71.4764L70.2406 44ZM70.3578 42.2912H72.6248V42.8452H70.3578V42.2912ZM78.8212 41.0149C78.78 40.8857 78.7246 40.7699 78.655 40.6676C78.5868 40.5639 78.5051 40.4759 78.41 40.4034C78.3148 40.3295 78.2061 40.2734 78.084 40.2351C77.9632 40.1967 77.8304 40.1776 77.6855 40.1776C77.4398 40.1776 77.2182 40.2408 77.0208 40.3672C76.8233 40.4936 76.6671 40.679 76.552 40.9233C76.4384 41.1662 76.3816 41.4638 76.3816 41.8161C76.3816 42.1697 76.4391 42.4687 76.5542 42.7131C76.6692 42.9574 76.8269 43.1428 77.0272 43.2692C77.2275 43.3956 77.4554 43.4588 77.7111 43.4588C77.9483 43.4588 78.155 43.4105 78.3311 43.3139C78.5087 43.2173 78.6458 43.081 78.7424 42.9048C78.8404 42.7273 78.8894 42.5185 78.8894 42.2784L79.0598 42.3104H77.8113V41.767H79.5265V42.2635C79.5265 42.63 79.4483 42.9482 79.2921 43.218C79.1373 43.4865 78.9228 43.6939 78.6486 43.8402C78.3759 43.9865 78.0634 44.0597 77.7111 44.0597C77.3162 44.0597 76.9696 43.9688 76.6713 43.7869C76.3745 43.6051 76.1429 43.3473 75.9767 43.0135C75.8105 42.6783 75.7275 42.2805 75.7275 41.8203C75.7275 41.4723 75.7757 41.1598 75.8723 40.8828C75.9689 40.6058 76.1046 40.3707 76.2793 40.1776C76.4554 39.983 76.6621 39.8345 76.8993 39.7322C77.138 39.6286 77.3986 39.5767 77.6813 39.5767C77.9171 39.5767 78.1365 39.6115 78.3397 39.6811C78.5442 39.7507 78.726 39.8494 78.8851 39.9773C79.0456 40.1051 79.1784 40.2571 79.2836 40.4332C79.3887 40.608 79.4597 40.8018 79.4966 41.0149H78.8212ZM82.3622 44V39.6364H83.0206V43.4332H84.9979V44H82.3622ZM88.4073 39.6364V44H87.7489V39.6364H88.4073ZM94.8881 39.6364V44H94.283L92.065 40.7997H92.0245V44H91.3661V39.6364H91.9755L94.1957 42.8409H94.2362V39.6364H94.8881ZM97.8485 44V39.6364H100.584V40.2031H98.5069V41.5327H100.442V42.0973H98.5069V43.4332H100.61V44H97.8485Z" fill="#211F1F"/>
<rect width="51" height="45" fill="#211F1F"/>
</svg>
