<svg xmlns="http://www.w3.org/2000/svg" xmlns:xlink="http://www.w3.org/1999/xlink" width="146" height="26" viewBox="0 0 146 26">
    <defs>
        <path id="prefix__a" d="M0.211 0.638L18.308 0.638 18.308 23.534 0.211 23.534z"/>
    </defs>
    <g fill="none" fill-rule="evenodd">
        <path fill="#FFF" d="M0 1.463L0 24.36 11.988 24.36 11.988 20.4 4.127 20.4 4.127 14.984 11.657 14.984 11.657 11.026 4.127 11.026 4.127 5.426 11.988 5.426 11.988 1.463zM15.519 1.463L15.519 24.36 26.455 24.36 26.455 20.4 19.647 20.4 19.647 1.463zM29.718 1.463L29.718 24.36 41.705 24.36 41.705 20.4 33.845 20.4 33.845 14.984 41.374 14.984 41.374 11.026 33.845 11.026 33.845 5.426 41.705 5.426 41.705 1.463zM59.496 1.463L53.502 18.883 53.444 18.883 47.481 1.463 43.145 1.463 51.818 24.36 55.192 24.36 63.833 1.463zM68.63 1.463L59.354 24.36h4.55l2.377-5.91h7.98l2.38 5.91h4.547L71.854 1.463H68.63zm1.566 5.972h.063l2.528 7.024h-5.123l2.532-7.024z" transform="translate(0 1)"/>
        <path fill="#00F4ED" d="M79.414 1.463L79.414 5.426 83.538 5.426 83.538 24.36 87.662 24.36 87.662 5.426 91.82 5.426 91.82 1.463zM94.319 24.36L98.443 24.36 98.443 1.463 94.319 1.463z" transform="translate(0 1)"/>
        <g>
            <path fill="#00F4ED" d="M11.735 20.038c4.247 0 7.53-3.68 7.53-7.922 0-4.394-3.342-7.981-7.53-7.981-4.187 0-7.528 3.587-7.528 7.981 0 4.242 3.284 7.922 7.528 7.922m0-19.863c6.324 0 11.653 5.197 11.653 11.975 0 6.559-5.237 11.85-11.653 11.85C5.32 24 .08 18.709.08 12.15.081 5.372 5.413.175 11.735.175" transform="translate(0 1) translate(101.227 .825)"/>
            <g transform="translate(0 1) translate(101.227 .825) translate(26.28)">
                <mask id="prefix__b" fill="#fff">
                    <use xlink:href="#prefix__a"/>
                </mask>
                <path fill="#00F4ED" d="M0.211 0.638L4.909 0.638 14.124 17.284 14.184 17.284 14.184 0.638 18.309 0.638 18.309 23.534 13.702 23.534 4.397 6.889 4.335 6.889 4.335 23.534 0.211 23.534z" mask="url(#prefix__b)"/>
            </g>
        </g>
    </g>
</svg>
