<svg width="55" height="56" viewBox="0 0 55 56" fill="none" xmlns="http://www.w3.org/2000/svg">
<g clip-path="url(#clip0_5832_4301)">
<path fill-rule="evenodd" clip-rule="evenodd" d="M23.21 53.7767H22.3056C21.8656 48.4845 17.4411 44.3289 12.0389 44.3289C11.66 44.3289 11.2933 44.3533 10.9389 44.39L7.22334 34.7222C9.49667 34.1845 11.1833 32.1556 11.1833 29.7233C11.1833 27.6578 9.96111 25.8978 8.21334 25.0667L16.4022 13.8956L17.7222 15.46C17.1111 17.0978 16.7567 18.7722 16.7567 20.4589C16.7567 23.27 17.71 26.0445 19.7633 28.4889C19.7633 28.4889 19.7756 28.4889 19.7878 28.5133C19.7878 28.5133 19.7878 28.5256 19.8 28.5378L20.6433 29.4056C21.1078 29.8822 21.7556 30.1878 22.4644 30.2H22.5989C24.0656 30.1145 25.8867 29.5767 27.8911 28.6478C29.8833 27.7189 32.0345 26.3745 34.0633 24.6511C36.0311 22.9767 37.73 21.1922 39.0378 19.4933C40.3456 17.7944 41.2622 16.1811 41.6778 14.7633C41.7878 14.3967 41.8367 14.0178 41.8367 13.6633C41.8367 13.2111 41.7633 12.7711 41.6289 12.3433L41.3478 11.4389C41.3478 11.4022 41.3111 11.3778 41.2989 11.3411C41.2745 11.28 41.25 11.2189 41.2133 11.17C41.2133 11.17 41.2133 11.1456 41.2011 11.1456C38.5245 7.96778 34.6867 6.46445 30.8611 6.47667C30.0178 6.47667 29.1622 6.56222 28.3311 6.70889L25.2022 2.98111C23.7967 1.33111 21.8533 0.5 19.8978 0.5C18.3333 0.5 16.7689 1.02556 15.4733 2.11333C13.86 3.47 13.0167 5.42556 13.0167 7.38111C13.0167 8.94556 13.5422 10.51 14.63 11.8056L15.2533 12.5511L6.40445 24.6145C6.27 24.6145 6.14778 24.5778 6.01334 24.5778C3.16556 24.5778 0.855556 26.8878 0.855556 29.7356C0.855556 32.3756 2.84778 34.5267 5.40222 34.8322L9.21556 44.7445C5.15778 45.8933 2.12667 49.4622 1.76 53.8011H0.855556C0.378889 53.8011 0 54.18 0 54.6567C0 55.1334 0.378889 55.5122 0.855556 55.5122H2.56667H21.4745H23.1856C23.6622 55.5122 24.0411 55.1211 24.0411 54.6567C24.0411 54.1922 23.6622 53.8011 23.1856 53.8011L23.21 53.7767ZM40.0156 14.2744C39.71 15.3622 38.8911 16.8411 37.6689 18.43C36.4467 20.0189 34.8333 21.7178 32.9511 23.3189C31.0445 24.9445 29.0156 26.2033 27.1578 27.0711C25.3122 27.9389 23.6256 28.4033 22.4889 28.4645H22.44C22.2445 28.4645 22.0245 28.3789 21.8533 28.1956L21.4378 27.7678C21.9756 26.7167 22.6845 25.3845 23.7478 23.82C24.1878 23.1845 24.6889 22.5122 25.2633 21.8278C26.0822 22.3167 26.9989 22.5733 27.94 22.5733C29.0889 22.5733 30.2622 22.1822 31.2156 21.3756C32.4133 20.3611 33.0367 18.9189 33.0367 17.4644C33.0367 16.7678 32.89 16.0711 32.6089 15.4111C33.6722 14.7389 34.6989 14.1889 35.64 13.7489C36.5933 13.3089 37.4733 12.9789 38.2311 12.7711C38.8911 12.5878 39.4411 12.49 39.8567 12.4778L39.9667 12.8078C40.0522 13.0767 40.0889 13.3456 40.0889 13.6144C40.0889 13.8344 40.0645 14.0422 40.0033 14.25L40.0156 14.2744ZM31.1545 16.4256C31.2645 16.7678 31.3256 17.1344 31.3256 17.4889C31.3256 18.4544 30.9222 19.4078 30.1156 20.0922C29.48 20.63 28.71 20.8867 27.94 20.8867C27.4267 20.8867 26.9133 20.7522 26.4367 20.5322C27.2556 19.6522 28.1845 18.76 29.2722 17.8678C29.8956 17.3422 30.5311 16.8778 31.1545 16.4378V16.4256ZM16.5856 3.42111C17.5511 2.60222 18.7245 2.21111 19.8978 2.21111C21.3767 2.21111 22.8311 2.83445 23.8456 4.05667L27.2922 8.15111C27.2922 8.15111 27.3533 8.18778 27.3778 8.21222C27.4267 8.26111 27.4756 8.29778 27.5245 8.33445C27.5733 8.35889 27.6222 8.38334 27.6711 8.39556C27.72 8.40778 27.7689 8.43222 27.83 8.44445C27.8911 8.44445 27.9522 8.44445 28.0133 8.44445C28.05 8.44445 28.0867 8.44445 28.1233 8.44445C29.0156 8.26111 29.92 8.16334 30.8245 8.16334C33.6356 8.16334 36.3978 9.08 38.5733 10.9622C38.3045 11.0111 38.0478 11.06 37.7667 11.1456C35.9089 11.6711 33.55 12.7467 31.0445 14.4089C31.0445 14.4089 31.0322 14.4089 31.02 14.4089C31.02 14.4089 31.02 14.4089 31.0078 14.4211C30.0789 15.0444 29.1256 15.7411 28.1845 16.5233C25.5445 18.7111 23.6867 20.9233 22.3545 22.8545C21.45 24.1745 20.79 25.3478 20.2889 26.3133C19.0422 24.4556 18.4678 22.4756 18.4678 20.4467C18.4678 18.8456 18.8222 17.22 19.4822 15.6067C19.9467 14.47 20.5944 13.4067 21.4011 12.4411C21.7067 12.0744 21.6578 11.5367 21.2911 11.2311C20.9244 10.9256 20.3867 10.9744 20.0811 11.3289C19.4578 12.0744 18.9322 12.8689 18.48 13.7L15.9378 10.6811C15.1189 9.71556 14.7278 8.54222 14.7278 7.36889C14.7278 5.89 15.3511 4.43556 16.5733 3.42111H16.5856ZM2.57889 29.7233C2.57889 28.77 2.95778 27.9145 3.59333 27.2911C4.21667 26.6678 5.07222 26.2889 6.02556 26.2889C6.97889 26.2889 7.83445 26.6678 8.45778 27.2911C9.08111 27.9145 9.46 28.77 9.46 29.7233C9.46 30.6767 9.08111 31.5322 8.45778 32.1556C7.83445 32.7789 6.97889 33.1578 6.02556 33.1578C5.07222 33.1578 4.21667 32.7789 3.59333 32.1556C2.97 31.5322 2.59111 30.6767 2.57889 29.7233ZM5.95222 48.5578C7.50445 47.0056 9.65556 46.04 12.0267 46.04C14.3978 46.04 16.5489 46.9933 18.1011 48.5578C19.47 49.9267 20.3745 51.7478 20.57 53.7767H3.48333C3.67889 51.7478 4.59556 49.9267 5.95222 48.5578Z" fill="#FC0048"/>
<path fill-rule="evenodd" clip-rule="evenodd" d="M54.1443 53.7766H31.8388C30.5554 53.7766 29.3821 53.0555 28.7832 51.9188L19.0421 33.0844C18.8221 32.6688 18.3088 32.4977 17.881 32.7177C17.4654 32.9377 17.2943 33.451 17.5143 33.8788L27.2554 52.7133C28.1354 54.4244 29.9077 55.4999 31.8388 55.4999H54.1443C54.621 55.4999 54.9999 55.1088 54.9999 54.6444C54.9999 54.1799 54.6088 53.7888 54.1443 53.7888V53.7766Z" fill="#FC0048"/>
<path fill-rule="evenodd" clip-rule="evenodd" d="M36.0923 28.0001C36.0923 28.4768 36.4712 28.8556 36.9478 28.8556H45.5401C46.0167 28.8556 46.3956 28.4768 46.3956 28.0001C46.3956 27.5234 46.0167 27.1445 45.5401 27.1445H36.9478C36.4712 27.1445 36.0923 27.5234 36.0923 28.0001Z" fill="#FC0048"/>
<path fill-rule="evenodd" clip-rule="evenodd" d="M29.3455 32.7178C29.1866 32.9744 29.1744 33.2922 29.321 33.5611L37.9133 49.89C38.0599 50.1711 38.3533 50.3544 38.671 50.3544H52.421C52.8977 50.3544 53.2766 49.9755 53.2766 49.4989C53.2766 49.0222 52.8977 48.6433 52.421 48.6433H39.1844L31.4966 34.0378H47.2633C47.7399 34.0378 48.1188 33.6589 48.1188 33.1822C48.1188 32.7055 47.7399 32.3267 47.2633 32.3267H30.0788C29.7733 32.3267 29.5044 32.4855 29.3455 32.7422V32.7178Z" fill="#FC0048"/>
<path fill-rule="evenodd" clip-rule="evenodd" d="M29.2235 39.171C29.2235 38.6943 28.8446 38.3154 28.3679 38.3154H26.6446C26.1679 38.3154 25.7891 38.6943 25.7891 39.171C25.7891 39.6477 26.1679 40.0265 26.6446 40.0265H28.3679C28.8446 40.0265 29.2235 39.6354 29.2235 39.171Z" fill="#FC0048"/>
<path fill-rule="evenodd" clip-rule="evenodd" d="M30.0787 46.9076H31.802C32.2787 46.9076 32.6576 46.5288 32.6576 46.0521C32.6576 45.5754 32.2665 45.1965 31.802 45.1965H30.0787C29.602 45.1965 29.2231 45.5754 29.2231 46.0521C29.2231 46.5288 29.602 46.9076 30.0787 46.9076Z" fill="#FC0048"/>
<path fill-rule="evenodd" clip-rule="evenodd" d="M28.3556 43.4733H30.0789C30.5556 43.4733 30.9344 43.0944 30.9344 42.6178C30.9344 42.1411 30.5556 41.7622 30.0789 41.7622H28.3556C27.8789 41.7622 27.5 42.1411 27.5 42.6178C27.5 43.0944 27.8789 43.4733 28.3556 43.4733Z" fill="#FC0048"/>
</g>
<defs>
<clipPath id="clip0_5832_4301">
<rect width="55" height="55" fill="white" transform="translate(0 0.5)"/>
</clipPath>
</defs>
</svg>
