<svg width="55" height="56" viewBox="0 0 55 56" fill="none" xmlns="http://www.w3.org/2000/svg">
<g clip-path="url(#clip0_5832_4294)">
<path fill-rule="evenodd" clip-rule="evenodd" d="M51.4068 36.6167C51.3335 36.7389 51.2602 36.8733 51.1868 36.9956L50.4657 36.5311L51.2724 36.2378L51.4068 36.6167C53.6679 32.9867 55.0002 28.7211 55.0002 24.1256C55.0002 11.0844 44.4157 0.5 31.3624 0.5C18.3213 0.5 7.73682 11.0844 7.73682 24.1256C7.73682 37.1667 18.3213 47.7633 31.3624 47.7633C35.9457 47.7633 40.2235 46.4311 43.8535 44.17L43.4746 44.0355L43.7679 43.2289L44.2324 43.95C44.1102 44.0233 43.9757 44.0967 43.8535 44.17L53.8513 47.7144C54.169 47.8244 54.5113 47.7511 54.7435 47.5067C54.9757 47.2744 55.0613 46.92 54.9513 46.6144L51.4068 36.6167ZM44.049 42.41C43.7924 42.3244 43.5113 42.3489 43.2913 42.4956C39.8568 44.7322 35.7624 46.04 31.3624 46.04C25.3124 46.04 19.8368 43.5833 15.8646 39.6233C11.8924 35.6511 9.44793 30.1878 9.44793 24.1256C9.44793 18.0756 11.9046 12.6 15.8646 8.62778C19.8368 4.65556 25.3002 2.21111 31.3624 2.21111C37.4246 2.21111 42.8879 4.66778 46.8602 8.62778C50.8202 12.6 53.2768 18.0633 53.2768 24.1256C53.2768 28.5256 51.969 32.62 49.7324 36.0544C49.5857 36.2744 49.549 36.5555 49.6468 36.8122L52.7268 45.49L44.049 42.41Z" fill="#FC0048"/>
<path fill-rule="evenodd" clip-rule="evenodd" d="M29.4189 51.3199C26.7055 52.8844 23.5644 53.7766 20.1911 53.7766C16.4755 53.7766 13.0289 52.6766 10.1322 50.7944C9.91219 50.6477 9.63108 50.611 9.37441 50.7088L2.26108 53.2266L4.79108 46.1133C4.87664 45.8566 4.83997 45.5755 4.70552 45.3555C2.8233 42.4588 1.7233 39.0121 1.7233 35.2966C1.7233 31.8377 2.66441 28.6233 4.31441 25.8488C4.55886 25.4455 4.42441 24.9199 4.02108 24.6755C3.61775 24.431 3.07997 24.5655 2.84775 24.9688C1.03886 27.9999 -3.03948e-05 31.5321 -3.03948e-05 35.3088C-3.03948e-05 39.0855 1.12441 42.8377 3.0433 45.9299L3.17775 45.551L3.98441 45.8444L3.2633 46.3088C3.18997 46.1866 3.11664 46.0521 3.0433 45.9299L0.0488585 54.351C-0.0611415 54.6688 0.0121918 55.011 0.256636 55.2433C0.488858 55.4755 0.843303 55.561 1.14886 55.451L9.58219 52.4566C9.45997 52.3832 9.32553 52.3099 9.2033 52.2366L9.66775 51.5155L9.96108 52.3221L9.58219 52.4566C12.6622 54.3755 16.3044 55.4999 20.2033 55.4999C23.87 55.4999 27.3166 54.5221 30.2866 52.811C30.7022 52.5788 30.8366 52.0533 30.6044 51.6377C30.3722 51.2221 29.8466 51.0877 29.4311 51.3199H29.4189Z" fill="#FC0048"/>
<path fill-rule="evenodd" clip-rule="evenodd" d="M42.9735 22.8421C42.9735 21.4244 41.8246 20.2632 40.3946 20.2632H33.8802C34.0269 19.7132 34.1491 19.1266 34.2346 18.491C34.4058 17.3421 34.4791 16.1199 34.4791 15.0688C34.4791 14.3721 34.4424 13.7488 34.3569 13.2477C34.0758 11.6099 33.6358 10.5466 33.0491 9.82546C32.7558 9.47102 32.4135 9.20213 32.0591 9.04324C31.7046 8.88435 31.3502 8.82324 31.0324 8.82324C30.1891 8.82324 29.6635 9.20213 29.5902 9.2388C29.3458 9.39769 29.2113 9.66658 29.2113 9.95991C29.2113 10.7177 29.2235 11.3288 29.2235 11.8788C29.2235 12.5999 29.1991 13.1621 29.0891 13.761C28.9791 14.3599 28.7713 15.0199 28.4046 15.9121C27.7446 17.4644 26.828 18.6866 25.7035 19.811C24.6402 20.8744 23.3935 21.8399 22.0491 22.8421H22.3424V23.6977L21.8291 23.0132C21.9024 22.9521 21.9758 22.9032 22.0613 22.8421H17.1969C16.7202 22.8421 16.3413 23.221 16.3413 23.6977C16.3413 24.1743 16.7202 24.5532 17.1969 24.5532H22.3546C22.538 24.5532 22.7213 24.4921 22.868 24.3821C24.298 23.3066 25.6913 22.2555 26.938 21.021C28.1724 19.7866 29.248 18.3566 30.0058 16.5721C30.4091 15.6066 30.6658 14.8121 30.8002 14.0666C30.9346 13.321 30.9713 12.6244 30.9713 11.8666C30.9713 11.4632 30.9713 11.0232 30.9713 10.5466C30.7758 10.571 30.5802 10.6688 30.568 10.681L30.0913 9.95991H30.9469C30.9469 10.1677 30.9469 10.3632 30.9469 10.5588C30.9835 10.5588 31.008 10.5588 31.0446 10.5588C31.1424 10.5588 31.2402 10.571 31.3502 10.6199C31.5091 10.6932 31.7291 10.8521 31.9858 11.2921C32.2424 11.7321 32.4991 12.4532 32.6824 13.541C32.7435 13.8832 32.7802 14.4455 32.7802 15.081C32.7802 16.0466 32.7069 17.1955 32.548 18.2588C32.4013 19.3099 32.1569 20.2632 31.9002 20.7521C31.9002 20.7521 31.9002 20.7644 31.9002 20.7766C31.8758 20.8255 31.8635 20.8866 31.8513 20.9477C31.8391 21.0088 31.8146 21.0577 31.8146 21.1188C31.8146 21.1188 31.8146 21.131 31.8146 21.1432C31.8146 21.1921 31.8391 21.2288 31.8391 21.2777C31.8391 21.3388 31.8513 21.3877 31.8758 21.4488C31.9002 21.5099 31.9246 21.5466 31.9613 21.5955C31.9858 21.6444 32.0102 21.681 32.0469 21.7299C32.0835 21.7788 32.1446 21.8032 32.1935 21.8399C32.2302 21.8644 32.2546 21.901 32.2913 21.9132C32.2913 21.9132 32.3035 21.9132 32.3158 21.9132C32.3646 21.9377 32.4258 21.9377 32.4746 21.9621C32.5358 21.9744 32.5846 21.9988 32.6458 21.9988C32.6458 21.9988 32.658 21.9988 32.6702 21.9988H40.4069C40.6391 21.9988 40.8591 22.0966 41.018 22.2555C41.1769 22.4144 41.2746 22.6221 41.2746 22.8666C41.2746 23.111 41.1769 23.3188 41.018 23.4777C40.8591 23.6366 40.6513 23.7344 40.4069 23.7344H38.6958C38.2191 23.7344 37.8402 24.1132 37.8402 24.5899C37.8402 25.0666 38.2191 25.4455 38.6958 25.4455H40.4191C40.6513 25.4455 40.8713 25.5432 41.018 25.7021C41.1769 25.861 41.2746 26.0688 41.2746 26.3132C41.2746 26.5577 41.1769 26.7655 41.018 26.9244C40.8591 27.0832 40.6513 27.181 40.4069 27.181H38.6835C38.2069 27.181 37.828 27.5599 37.828 28.0366C37.828 28.5132 38.2069 28.8921 38.6835 28.8921H39.5391C39.7713 28.8921 39.9913 28.9899 40.1502 29.1488C40.3091 29.3077 40.4069 29.5155 40.4069 29.7599C40.4069 29.9921 40.3091 30.2121 40.1502 30.371C39.9913 30.5299 39.7835 30.6277 39.5391 30.6277H38.6835H37.828C37.3513 30.6277 36.9724 31.0066 36.9724 31.4832C36.9724 31.9599 37.3513 32.3388 37.828 32.3388H38.6958C38.928 32.3388 39.1358 32.4366 39.2946 32.5955C39.4535 32.7543 39.5513 32.9621 39.5513 33.2066C39.5513 33.451 39.4535 33.6588 39.2946 33.8177C39.1358 33.9766 38.928 34.0743 38.6835 34.0743H33.0735C31.1424 34.0743 29.2235 33.8788 27.3413 33.5121L25.9602 33.231H25.7891L21.4869 33.2188C21.0102 33.2188 20.6313 33.5977 20.6313 34.0743C20.6313 34.551 21.0102 34.9299 21.4869 34.9299H25.7035L26.9991 35.1866C29.0035 35.5899 31.0324 35.7855 33.0613 35.7855H38.6713C40.0891 35.7855 41.2502 34.6366 41.2502 33.2066C41.2502 32.7421 41.1158 32.3143 40.908 31.9477C41.6291 31.4955 42.1058 30.6888 42.118 29.7721C42.118 29.3077 41.9835 28.8799 41.7758 28.5132C42.4969 28.061 42.9735 27.2543 42.9858 26.3377C42.9858 25.6777 42.7291 25.0788 42.3135 24.6144C42.7291 24.1621 42.9858 23.5632 42.9858 22.891L42.9735 22.8421Z" fill="#FC0048"/>
</g>
<defs>
<clipPath id="clip0_5832_4294">
<rect width="55" height="55" fill="white" transform="translate(0 0.5)"/>
</clipPath>
</defs>
</svg>
