<svg width="55" height="56" viewBox="0 0 55 56" fill="none" xmlns="http://www.w3.org/2000/svg">
<g clip-path="url(#clip0_5832_4309)">
<path fill-rule="evenodd" clip-rule="evenodd" d="M50.6978 34.8704H11.0122L40.9933 17.5393C41.5922 17.1971 42.2889 17.0993 42.9489 17.2826C43.6089 17.466 44.1711 17.8937 44.5133 18.4804L50.5267 28.8937C50.7589 29.3093 51.2845 29.4437 51.7 29.2115C52.1156 28.9793 52.25 28.4537 52.0178 28.0382L46.0045 17.6248C45.43 16.6348 44.5011 15.926 43.4011 15.6204C42.2889 15.3271 41.14 15.4737 40.1378 16.0482L5.75667 35.9093L23.0633 5.91595C23.7722 4.68151 25.3611 4.26595 26.5833 4.97484L36.9967 10.9882C37.4122 11.2204 37.9378 11.086 38.17 10.6704C38.4022 10.2548 38.2678 9.72928 37.8522 9.49706L27.4389 3.48373C25.3856 2.29817 22.7578 3.00706 21.5722 5.0604L1.72333 39.4537V4.80373C1.72333 3.38595 2.88445 2.22484 4.30222 2.22484H16.3289C16.8056 2.22484 17.1845 1.83373 17.1845 1.36929C17.1845 0.904841 16.8056 0.51373 16.3289 0.51373H4.30222C1.93111 0.501507 0 2.43262 0 4.80373V45.1859V46.0293C0 46.1515 0.0244445 46.2737 0.0733334 46.3715C0.672222 51.4926 5.03556 55.4771 10.3156 55.4771H50.71C53.0811 55.4771 55.0122 53.5459 55.0122 51.1748V39.1482C55.0122 36.7771 53.0811 34.8459 50.71 34.8459L50.6978 34.8704ZM53.2767 51.1993C53.2767 52.6171 52.1156 53.7782 50.6978 53.7782H10.3156C5.57333 53.7782 1.72333 49.9282 1.72333 45.1859C1.72333 43.7193 2.10222 42.3259 2.75 41.1159C2.75 41.1159 2.76222 41.1159 2.76222 41.1037L2.93333 40.8104C3.66667 39.5759 4.69333 38.5493 5.92778 37.8159L6.31889 37.5959C7.51667 36.9604 8.87334 36.6059 10.3156 36.6059H50.71C52.1278 36.6059 53.2889 37.7671 53.2889 39.1848V51.2115L53.2767 51.1993Z" fill="#FC0048"/>
<path fill-rule="evenodd" clip-rule="evenodd" d="M48.9868 40.0266H38.6712H28.3557H18.0401C17.5635 40.0266 17.1846 40.4177 17.1846 40.8822V49.4744C17.1846 49.9511 17.5635 50.3299 18.0401 50.3299H48.9746C49.4512 50.3299 49.8301 49.9511 49.8301 49.4744V40.8822C49.8301 40.4055 49.4512 40.0266 48.9746 40.0266H48.9868ZM37.8157 41.7499V48.6188H29.2235V41.7499H37.8157ZM18.9079 41.7499H27.5001V48.6188H18.9079V41.7499ZM48.1312 48.6188H39.539V41.7499H48.1312V48.6188Z" fill="#FC0048"/>
<path fill-rule="evenodd" clip-rule="evenodd" d="M10.3157 42.6055C8.89793 42.6055 7.73682 43.7666 7.73682 45.1844C7.73682 46.6021 8.89793 47.7632 10.3157 47.7632C11.7335 47.7632 12.8946 46.6021 12.8946 45.1844C12.8946 43.7666 11.7335 42.6055 10.3157 42.6055ZM10.3157 46.0521C9.83904 46.0521 9.46015 45.661 9.46015 45.1966C9.46015 44.7321 9.85126 44.341 10.3157 44.341C10.7801 44.341 11.1713 44.7321 11.1713 45.1966C11.1713 45.661 10.7924 46.0521 10.3157 46.0521Z" fill="#FC0048"/>
</g>
<defs>
<clipPath id="clip0_5832_4309">
<rect width="55" height="55" fill="white" transform="translate(0 0.5)"/>
</clipPath>
</defs>
</svg>
