<svg width="45" height="45" viewBox="0 0 45 45" fill="none" xmlns="http://www.w3.org/2000/svg">
<g clip-path="url(#clip0_5832_4179)">
<path fill-rule="evenodd" clip-rule="evenodd" d="M18.99 43.59H18.25C17.89 39.26 14.27 35.86 9.85 35.86C9.54 35.86 9.24 35.88 8.95 35.91L5.91 28C7.77 27.56 9.15 25.9 9.15 23.91C9.15 22.22 8.15 20.78 6.72 20.1L13.42 10.96L14.5 12.24C14 13.58 13.71 14.95 13.71 16.33C13.71 18.63 14.49 20.9 16.17 22.9C16.17 22.9 16.18 22.9 16.19 22.92C16.19 22.92 16.19 22.93 16.2 22.94L16.89 23.65C17.27 24.04 17.8 24.29 18.38 24.3H18.49C19.69 24.23 21.18 23.79 22.82 23.03C24.45 22.27 26.21 21.17 27.87 19.76C29.48 18.39 30.87 16.93 31.94 15.54C33.01 14.15 33.76 12.83 34.1 11.67C34.19 11.37 34.23 11.06 34.23 10.77C34.23 10.4 34.17 10.04 34.06 9.69L33.83 8.95C33.83 8.92 33.8 8.9 33.79 8.87C33.77 8.82 33.75 8.77 33.72 8.73C33.72 8.73 33.72 8.71 33.71 8.71C31.52 6.11 28.38 4.88 25.25 4.89C24.56 4.89 23.86 4.96 23.18 5.08L20.62 2.03C19.47 0.68 17.88 0 16.28 0C15 0 13.72 0.43 12.66 1.32C11.34 2.43 10.65 4.03 10.65 5.63C10.65 6.91 11.08 8.19 11.97 9.25L12.48 9.86L5.24 19.73C5.13 19.73 5.03 19.7 4.92 19.7C2.59 19.7 0.7 21.59 0.7 23.92C0.7 26.08 2.33 27.84 4.42 28.09L7.54 36.2C4.22 37.14 1.74 40.06 1.44 43.61H0.7C0.31 43.61 0 43.92 0 44.31C0 44.7 0.31 45.01 0.7 45.01H2.1H17.57H18.97C19.36 45.01 19.67 44.69 19.67 44.31C19.67 43.93 19.36 43.61 18.97 43.61L18.99 43.59ZM32.74 11.27C32.49 12.16 31.82 13.37 30.82 14.67C29.82 15.97 28.5 17.36 26.96 18.67C25.4 20 23.74 21.03 22.22 21.74C20.71 22.45 19.33 22.83 18.4 22.88H18.36C18.2 22.88 18.02 22.81 17.88 22.66L17.54 22.31C17.98 21.45 18.56 20.36 19.43 19.08C19.79 18.56 20.2 18.01 20.67 17.45C21.34 17.85 22.09 18.06 22.86 18.06C23.8 18.06 24.76 17.74 25.54 17.08C26.52 16.25 27.03 15.07 27.03 13.88C27.03 13.31 26.91 12.74 26.68 12.2C27.55 11.65 28.39 11.2 29.16 10.84C29.94 10.48 30.66 10.21 31.28 10.04C31.82 9.89 32.27 9.81 32.61 9.8L32.7 10.07C32.77 10.29 32.8 10.51 32.8 10.73C32.8 10.91 32.78 11.08 32.73 11.25L32.74 11.27ZM25.49 13.03C25.58 13.31 25.63 13.61 25.63 13.9C25.63 14.69 25.3 15.47 24.64 16.03C24.12 16.47 23.49 16.68 22.86 16.68C22.44 16.68 22.02 16.57 21.63 16.39C22.3 15.67 23.06 14.94 23.95 14.21C24.46 13.78 24.98 13.4 25.49 13.04V13.03ZM13.57 2.39C14.36 1.72 15.32 1.4 16.28 1.4C17.49 1.4 18.68 1.91 19.51 2.91L22.33 6.26C22.33 6.26 22.38 6.29 22.4 6.31C22.44 6.35 22.48 6.38 22.52 6.41C22.56 6.43 22.6 6.45 22.64 6.46C22.68 6.47 22.72 6.49 22.77 6.5C22.82 6.5 22.87 6.5 22.92 6.5C22.95 6.5 22.98 6.5 23.01 6.5C23.74 6.35 24.48 6.27 25.22 6.27C27.52 6.27 29.78 7.02 31.56 8.56C31.34 8.6 31.13 8.64 30.9 8.71C29.38 9.14 27.45 10.02 25.4 11.38C25.4 11.38 25.39 11.38 25.38 11.38C25.38 11.38 25.38 11.38 25.37 11.39C24.61 11.9 23.83 12.47 23.06 13.11C20.9 14.9 19.38 16.71 18.29 18.29C17.55 19.37 17.01 20.33 16.6 21.12C15.58 19.6 15.11 17.98 15.11 16.32C15.11 15.01 15.4 13.68 15.94 12.36C16.32 11.43 16.85 10.56 17.51 9.77C17.76 9.47 17.72 9.03 17.42 8.78C17.12 8.53 16.68 8.57 16.43 8.86C15.92 9.47 15.49 10.12 15.12 10.8L13.04 8.33C12.37 7.54 12.05 6.58 12.05 5.62C12.05 4.41 12.56 3.22 13.56 2.39H13.57ZM2.11 23.91C2.11 23.13 2.42 22.43 2.94 21.92C3.45 21.41 4.15 21.1 4.93 21.1C5.71 21.1 6.41 21.41 6.92 21.92C7.43 22.43 7.74 23.13 7.74 23.91C7.74 24.69 7.43 25.39 6.92 25.9C6.41 26.41 5.71 26.72 4.93 26.72C4.15 26.72 3.45 26.41 2.94 25.9C2.43 25.39 2.12 24.69 2.11 23.91ZM4.87 39.32C6.14 38.05 7.9 37.26 9.84 37.26C11.78 37.26 13.54 38.04 14.81 39.32C15.93 40.44 16.67 41.93 16.83 43.59H2.85C3.01 41.93 3.76 40.44 4.87 39.32Z" fill="#47127E"/>
<path fill-rule="evenodd" clip-rule="evenodd" d="M44.2998 43.5901H26.0498C24.9998 43.5901 24.0398 43.0001 23.5498 42.0701L15.5798 26.6601C15.3998 26.3201 14.9798 26.1801 14.6298 26.3601C14.2898 26.5401 14.1498 26.9601 14.3298 27.3101L22.2998 42.7201C23.0198 44.1201 24.4698 45.0001 26.0498 45.0001H44.2998C44.6898 45.0001 44.9998 44.6801 44.9998 44.3001C44.9998 43.9201 44.6798 43.6001 44.2998 43.6001V43.5901Z" fill="#47127E"/>
<path fill-rule="evenodd" clip-rule="evenodd" d="M29.5298 22.5C29.5298 22.89 29.8398 23.2001 30.2298 23.2001H37.2598C37.6498 23.2001 37.9598 22.89 37.9598 22.5C37.9598 22.11 37.6498 21.8 37.2598 21.8H30.2298C29.8398 21.8 29.5298 22.11 29.5298 22.5Z" fill="#47127E"/>
<path fill-rule="evenodd" clip-rule="evenodd" d="M24.0098 26.36C23.8798 26.57 23.8698 26.83 23.9898 27.05L31.0198 40.41C31.1398 40.64 31.3798 40.79 31.6398 40.79H42.8898C43.2798 40.79 43.5898 40.48 43.5898 40.09C43.5898 39.7 43.2798 39.39 42.8898 39.39H32.0599L25.7698 27.44H38.6698C39.0598 27.44 39.3698 27.13 39.3698 26.74C39.3698 26.35 39.0598 26.04 38.6698 26.04H24.6098C24.3598 26.04 24.1398 26.17 24.0098 26.38V26.36Z" fill="#47127E"/>
<path fill-rule="evenodd" clip-rule="evenodd" d="M23.9101 31.6399C23.9101 31.2499 23.6001 30.9399 23.2101 30.9399H21.8001C21.4101 30.9399 21.1001 31.2499 21.1001 31.6399C21.1001 32.0299 21.4101 32.3399 21.8001 32.3399H23.2101C23.6001 32.3399 23.9101 32.0199 23.9101 31.6399Z" fill="#47127E"/>
<path fill-rule="evenodd" clip-rule="evenodd" d="M24.6102 37.9701H26.0202C26.4102 37.9701 26.7202 37.6601 26.7202 37.2701C26.7202 36.8801 26.4002 36.5701 26.0202 36.5701H24.6102C24.2202 36.5701 23.9102 36.8801 23.9102 37.2701C23.9102 37.6601 24.2202 37.9701 24.6102 37.9701Z" fill="#47127E"/>
<path fill-rule="evenodd" clip-rule="evenodd" d="M23.2 35.16H24.61C25 35.16 25.31 34.85 25.31 34.46C25.31 34.07 25 33.76 24.61 33.76H23.2C22.81 33.76 22.5 34.07 22.5 34.46C22.5 34.85 22.81 35.16 23.2 35.16Z" fill="#47127E"/>
</g>
<defs>
<clipPath id="clip0_5832_4179">
<rect width="45" height="45" fill="white"/>
</clipPath>
</defs>
</svg>
