<svg width="45" height="45" viewBox="0 0 45 45" fill="none" xmlns="http://www.w3.org/2000/svg">
<g clip-path="url(#clip0_5832_4187)">
<path fill-rule="evenodd" clip-rule="evenodd" d="M41.48 28.1201H9.01L33.54 13.9401C34.03 13.6601 34.6 13.5801 35.14 13.7301C35.68 13.8801 36.14 14.2301 36.42 14.7101L41.34 23.2301C41.53 23.5701 41.96 23.6801 42.3 23.4901C42.64 23.3001 42.75 22.8701 42.56 22.5301L37.64 14.0101C37.17 13.2001 36.41 12.6201 35.51 12.3701C34.6 12.1301 33.66 12.2501 32.84 12.7201L4.71 28.9701L18.87 4.43006C19.45 3.42006 20.75 3.08006 21.75 3.66006L30.27 8.58006C30.61 8.77006 31.04 8.66006 31.23 8.32006C31.42 7.98006 31.31 7.55006 30.97 7.36006L22.45 2.44006C20.77 1.47006 18.62 2.05006 17.65 3.73006L1.41 31.8701V3.52006C1.41 2.36006 2.36 1.41006 3.52 1.41006H13.36C13.75 1.41006 14.06 1.09006 14.06 0.710057C14.06 0.330057 13.75 0.010057 13.36 0.010057H3.52C1.58 5.69737e-05 0 1.58006 0 3.52006V36.5601V37.2501C0 37.3501 0.02 37.4501 0.06 37.5301C0.55 41.7201 4.12 44.9801 8.44 44.9801H41.49C43.43 44.9801 45.01 43.4001 45.01 41.4601V31.6201C45.01 29.6801 43.43 28.1001 41.49 28.1001L41.48 28.1201ZM43.59 41.4801C43.59 42.6401 42.64 43.5901 41.48 43.5901H8.44C4.56 43.5901 1.41 40.4401 1.41 36.5601C1.41 35.3601 1.72 34.2201 2.25 33.2301C2.25 33.2301 2.26 33.2301 2.26 33.2201L2.4 32.9801C3 31.9701 3.84 31.1301 4.85 30.5301L5.17 30.3501C6.15 29.8301 7.26 29.5401 8.44 29.5401H41.49C42.65 29.5401 43.6 30.4901 43.6 31.6501V41.4901L43.59 41.4801Z" fill="#47127E"/>
<path fill-rule="evenodd" clip-rule="evenodd" d="M40.0801 32.3401H31.6401H23.2001H14.7601C14.3701 32.3401 14.0601 32.6601 14.0601 33.0401V40.0701C14.0601 40.4601 14.3701 40.7701 14.7601 40.7701H40.0701C40.4601 40.7701 40.7701 40.4601 40.7701 40.0701V33.0401C40.7701 32.6501 40.4601 32.3401 40.0701 32.3401H40.0801ZM30.9401 33.7501V39.3701H23.9101V33.7501H30.9401ZM15.4701 33.7501H22.5001V39.3701H15.4701V33.7501ZM39.3801 39.3701H32.3501V33.7501H39.3801V39.3701Z" fill="#47127E"/>
<path fill-rule="evenodd" clip-rule="evenodd" d="M8.44008 34.45C7.28008 34.45 6.33008 35.4 6.33008 36.56C6.33008 37.72 7.28008 38.6699 8.44008 38.6699C9.60008 38.6699 10.5501 37.72 10.5501 36.56C10.5501 35.4 9.60008 34.45 8.44008 34.45ZM8.44008 37.27C8.05008 37.27 7.74008 36.95 7.74008 36.57C7.74008 36.19 8.06008 35.8699 8.44008 35.8699C8.82008 35.8699 9.14008 36.19 9.14008 36.57C9.14008 36.95 8.83008 37.27 8.44008 37.27Z" fill="#47127E"/>
</g>
<defs>
<clipPath id="clip0_5832_4187">
<rect width="45" height="45" fill="white"/>
</clipPath>
</defs>
</svg>
