<svg width="45" height="46" viewBox="0 0 45 46" fill="none" xmlns="http://www.w3.org/2000/svg">
<path d="M14.5202 13.7901C16.6502 13.7901 18.4802 15.1001 19.2302 16.9601C19.3802 17.3301 19.8002 17.5101 20.1802 17.3601C20.5602 17.2101 20.7302 16.7901 20.5802 16.4101C19.6102 14.0201 17.2602 12.3301 14.5202 12.3301C10.9102 12.3301 7.99023 15.2501 7.99023 18.8601C7.99023 19.6901 8.15023 20.4401 8.43023 21.1201C8.72023 21.8001 9.13023 22.4101 9.62023 22.9701C9.89023 23.2701 10.3402 23.3001 10.6502 23.0301C10.9502 22.7701 10.9802 22.3101 10.7102 22.0101C10.3002 21.5401 9.98024 21.0701 9.77024 20.5601C9.56024 20.0501 9.44023 19.5001 9.44023 18.8601C9.44023 17.4601 10.0102 16.1901 10.9302 15.2701C11.8502 14.3501 13.1202 13.7801 14.5202 13.7801V13.7901Z" fill="#47127E"/>
<path d="M19.6 45H3.63C2.43 45 1.45 44.02 1.45 42.82V3.63C1.45 2.43 2.43 1.46 3.63 1.45H24.68C25.88 1.45 26.85 2.43 26.86 3.63V16.69C26.86 17.09 27.18 17.42 27.59 17.42C28 17.42 28.32 17.09 28.32 16.69V3.63C28.32 1.63 26.7 0 24.69 0H3.63C1.62 0 0 1.62 0 3.63V42.82C0 44.82 1.62 46.45 3.63 46.45H19.6C20 46.45 20.32 46.12 20.32 45.72C20.32 45.32 20 45 19.6 45Z" fill="#47127E"/>
<path d="M23.2298 5.81008C23.2298 5.41008 22.8998 5.08008 22.4998 5.08008H5.80984C5.40984 5.08008 5.08984 5.40008 5.08984 5.81008C5.08984 6.22008 5.40984 6.54008 5.80984 6.54008H22.4998C22.8998 6.54008 23.2298 6.22008 23.2298 5.81008Z" fill="#47127E"/>
<path d="M16.6901 42.1001C17.0901 42.1001 17.4101 41.7701 17.4101 41.3701C17.4101 40.9701 17.0901 40.6401 16.6901 40.6401H11.6101C11.2101 40.6401 10.8901 40.9701 10.8901 41.3701C10.8901 41.7701 11.2101 42.1001 11.6101 42.1001H16.6901Z" fill="#47127E"/>
<path d="M32.28 25.15L31.71 24.29L32.28 25.15Z" fill="#47127E"/>
<path d="M26.55 26.8901L26.02 26.0801L26.55 26.8901Z" fill="#47127E"/>
<path d="M44.9098 45.37L42.8498 41.68L42.8298 41.65C42.6298 41.32 42.5598 40.98 42.5598 40.53C42.5598 40.04 42.6598 39.47 42.7298 38.85C42.7698 38.48 42.7898 38.11 42.7898 37.73C42.7898 34.61 41.5598 31.38 39.9298 28.91L35.2898 21.93C34.7598 21.13 33.8698 20.7 32.9698 20.71C32.4198 20.71 31.8598 20.87 31.3598 21.2C30.9198 21.49 30.6098 21.88 30.3898 22.32C30.3698 22.35 30.3498 22.37 30.3298 22.39C29.8198 21.94 29.1598 21.71 28.4898 21.71C27.9398 21.71 27.3798 21.87 26.8798 22.2C26.4198 22.5 26.0898 22.92 25.8698 23.38C25.8698 23.38 25.8698 23.39 25.8598 23.4C25.3398 22.95 24.6798 22.71 24.0098 22.71C23.4598 22.71 22.8998 22.87 22.3998 23.2C21.9798 23.48 21.6498 23.85 21.4298 24.27L16.7998 17.23C16.2698 16.43 15.3798 16 14.4798 16C13.9298 16 13.3698 16.16 12.8698 16.49C12.0298 17.05 11.5698 17.96 11.5698 18.89C11.5698 19.41 11.7198 19.93 12.0198 20.39L18.4598 30.16C18.1298 30.1 17.8098 30.06 17.4798 30.06C16.9298 30.06 16.3898 30.14 15.8998 30.45C15.6198 30.63 15.3898 30.85 15.2298 31.12C15.0698 31.39 14.9898 31.7 14.9898 31.98C14.9898 32.37 15.1098 32.7 15.2498 33.01C15.3898 33.32 15.5698 33.6 15.7598 33.88L17.3698 36.31H5.80984C5.40984 36.31 5.08984 36.64 5.08984 37.04C5.08984 37.44 5.40984 37.76 5.80984 37.76H18.1498C18.2098 37.76 18.2698 37.74 18.3298 37.72L19.4198 39.37C20.6698 41.25 22.3998 42.94 24.4598 44.01C24.7098 44.14 24.9598 44.23 25.1998 44.31L29.7598 45.68L30.0698 46.15C30.2898 46.48 30.7398 46.58 31.0798 46.35C31.4098 46.13 31.5098 45.68 31.2798 45.34L30.8198 44.65C30.7298 44.51 30.5898 44.41 30.4198 44.36L25.6098 42.91C25.4298 42.86 25.2698 42.79 25.1298 42.72C23.3298 41.78 21.7498 40.26 20.6298 38.56L16.9898 33.07C16.8198 32.81 16.6698 32.57 16.5798 32.38C16.4898 32.19 16.4598 32.04 16.4598 31.97L16.4898 31.86C16.4898 31.86 16.5698 31.75 16.7198 31.65C16.8098 31.58 17.1098 31.49 17.4898 31.5C17.9498 31.5 18.5298 31.61 18.9998 31.78C19.2398 31.87 19.4498 31.97 19.5998 32.08C19.7598 32.18 19.8598 32.29 19.8898 32.34L22.5398 36.34L22.7298 36.62C22.7798 36.7 22.8498 36.77 22.9298 36.82C22.9698 36.85 23.0198 36.86 23.0698 36.88C23.1098 36.9 23.1498 36.92 23.1898 36.93C23.2098 36.93 23.2398 36.93 23.2598 36.93C23.3298 36.93 23.3998 36.94 23.4698 36.93C23.5598 36.91 23.6498 36.88 23.7398 36.82C23.8198 36.77 23.8898 36.7 23.9398 36.62C24.0498 36.46 24.0898 36.27 24.0498 36.08C24.0298 35.99 23.9998 35.9 23.9398 35.82L23.6798 35.43L13.2298 19.58C13.0898 19.36 13.0198 19.13 13.0198 18.88C13.0198 18.43 13.2498 17.97 13.6698 17.69C13.9198 17.52 14.1998 17.45 14.4798 17.45C14.9298 17.45 15.3398 17.66 15.5898 18.02L21.4898 27C21.5098 27.03 21.5198 27.06 21.5398 27.1L22.5098 28.56C22.5098 28.56 22.5598 28.61 22.5798 28.63C22.6198 28.68 22.6598 28.73 22.7098 28.76C22.7898 28.81 22.8698 28.85 22.9598 28.87C23.0498 28.89 23.1498 28.89 23.2398 28.87C23.3298 28.85 23.4198 28.82 23.5098 28.76C23.5898 28.71 23.6598 28.64 23.7098 28.56C23.7598 28.48 23.7998 28.39 23.8198 28.3C23.8198 28.3 23.8198 28.29 23.8198 28.28C23.8398 28.19 23.8398 28.1 23.8198 28.02C23.8198 27.97 23.7798 27.92 23.7598 27.88C23.7398 27.84 23.7398 27.8 23.7098 27.76L22.7198 26.25C22.5998 26.05 22.5298 25.82 22.5298 25.59C22.5298 25.14 22.7598 24.68 23.1798 24.4C23.4298 24.23 23.7098 24.16 23.9898 24.15C24.4398 24.15 24.8598 24.36 25.0998 24.73L26.0098 26.1C25.9698 26.04 25.9398 25.98 25.9098 25.92L26.7198 27.15C26.7198 27.15 26.8698 27.32 26.9198 27.35C26.9998 27.4 27.0798 27.44 27.1698 27.46C27.2598 27.48 27.3598 27.48 27.4498 27.46C27.5398 27.44 27.6298 27.41 27.7198 27.35C27.7998 27.3 27.8698 27.23 27.9198 27.15C27.9698 27.07 28.0098 26.98 28.0298 26.89C28.0298 26.89 28.0298 26.88 28.0298 26.87C28.0498 26.78 28.0498 26.69 28.0298 26.61C28.0298 26.56 27.9498 26.38 27.9198 26.34L27.1798 25.23C27.0598 25.03 26.9998 24.81 26.9998 24.59C26.9998 24.14 27.2298 23.68 27.6498 23.4C27.8998 23.23 28.1798 23.16 28.4598 23.15C28.9098 23.15 29.3298 23.36 29.5698 23.73L30.4298 25.02L31.0998 26.03C31.0998 26.03 31.2498 26.2 31.2998 26.23C31.3798 26.28 31.4598 26.32 31.5498 26.34C31.6398 26.36 31.7398 26.36 31.8298 26.34C31.9198 26.32 32.0098 26.29 32.0998 26.23C32.1798 26.18 32.2498 26.11 32.2998 26.03C32.3498 25.95 32.3898 25.86 32.4098 25.77C32.4098 25.77 32.4098 25.76 32.4098 25.75C32.4298 25.66 32.4298 25.57 32.4098 25.49C32.4098 25.44 32.3298 25.26 32.2998 25.22C32.2998 25.22 32.2798 25.2 32.2698 25.17C32.2698 25.17 32.2698 25.15 32.2598 25.14C32.2598 25.14 32.2598 25.16 32.2698 25.17C32.1598 25 31.7498 24.38 31.5098 24.01L31.6898 24.28C31.5498 24.07 31.4798 23.83 31.4798 23.58C31.4798 23.13 31.7098 22.67 32.1298 22.39C32.3798 22.22 32.6598 22.14 32.9398 22.14C33.3898 22.14 33.7998 22.35 34.0498 22.72L38.6898 29.7C40.1898 31.96 41.3198 34.99 41.3098 37.72C41.3098 38.05 41.2898 38.37 41.2598 38.69C41.2098 39.23 41.0898 39.85 41.0898 40.52C41.0898 41.11 41.1998 41.77 41.5698 42.38L43.6298 46.07C43.8198 46.42 44.2698 46.55 44.6198 46.35C44.9698 46.15 45.0998 45.71 44.8998 45.36L44.9098 45.37Z" fill="#47127E"/>
</svg>
