<svg width="60" height="60" viewBox="0 0 60 60" fill="none" xmlns="http://www.w3.org/2000/svg">
<circle cx="30" cy="30" r="29.5" fill="#FBF9F8" stroke="#D5D4DC"/>
<path d="M26.5204 23.8547C26.3267 23.6609 26.2178 23.3982 26.2178 23.1242C26.2178 22.8502 26.3267 22.5875 26.5204 22.3937C26.7141 22.2 26.9769 22.0911 27.2509 22.0911C27.5249 22.0911 27.7876 22.2 27.9814 22.3937L34.8564 29.2687C34.9525 29.3645 35.0288 29.4784 35.0808 29.6037C35.1329 29.7291 35.1597 29.8635 35.1597 29.9992C35.1597 30.1349 35.1329 30.2693 35.0808 30.3947C35.0288 30.52 34.9525 30.6339 34.8564 30.7297L27.9814 37.6047C27.7876 37.7984 27.5249 37.9072 27.2509 37.9072C26.9769 37.9072 26.7141 37.7984 26.5204 37.6047C26.3267 37.4109 26.2178 37.1482 26.2178 36.8742C26.2178 36.6002 26.3267 36.3375 26.5204 36.1437L32.6641 30L26.5204 23.8547Z" fill="#210044"/>
</svg>
